# xmcd
#
# Track frame offsets:
# 150
# 16270
# 36642
# 54582
# 78739
# 91486
# 104616
# 128566
# 148632
# 161764
# 175132
# 189945
# 206455
# 223792
# 243329
# 261481
# 283381
# 302481
# 317458
#
# Disc length: 4433 seconds
#
#
# Revision: 0
# Processed by: cddbd v1.5.2PL0 Copyright (c) Steve Scherf et al.
# Submitted via: FreeRIP 2.945 
#
DISCID=19114f13
DTITLE=the charlie daniels band - a decade of hits plus
DYEAR=0098
DGENRE=fiddlin'
TTITLE0=the devil went down to georgia
TTITLE1=tennessee
TTITLE2=the souths gonna do it again
TTITLE3=million mile reflections
TTITLE4=stroker ace
TTITLE5=old rock and roller
TTITLE6=uneasy rider
TTITLE7=damn good cowboy
TTITLE8=let it roll
TTITLE9=texas
TTITLE10=in america
TTITLE11=what this world needs is a few more rednecks
TTITLE12=still in sigon
TTITLE13=play me some fiddle
TTITLE14=long haired country boy
TTITLE15=high lonesome
TTITLE16=the leagend of the wolly swamp
TTITLE17=simple man
TTITLE18=everytime i see him
EXTD=library disc and my tapes
EXTT0=
EXTT1=
EXTT2=
EXTT3=
EXTT4=
EXTT5=
EXTT6=
EXTT7=
EXTT8=
EXTT9=
EXTT10=
EXTT11=
EXTT12=
EXTT13=
EXTT14=
EXTT15=
EXTT16=
EXTT17=
EXTT18=
PLAYORDER=
